PathFileType	4	(X/Y/Z)	c:/Users/goper/Files/vsCode/490R/osim_files/C15/C15_Static01.trc
DataRate	CameraRate	NumFrames	NumMarkers	Units                	OrigDataRate	OrigDataStartFrame	OrigNumFrames
250.00	250.00	9	36	mm	250.0	1394	3717
                Frame#	Time	LPSIS			LASIS			LTH1			LTH2			LTH3			LTH4			LLFE			LMFE			LSH1			LSH2			LSH3			LSH4			LLMAL			LMMAL			LCAL			LMTP5			LTOE			LMTP1			RPSIS			RASIS			RTH1			RTH2			RTH3			RTH4			RLFE			RMFE			RSH1			RSH2			RSH3			RSH4			RLMAL			RMMAL			RCAL			RMTP1			RTOE			RMTP5		
		X1	Y1	Z1	X2	Y2	Z2	X3	Y3	Z3	X4	Y4	Z4	X5	Y5	Z5	X6	Y6	Z6	X7	Y7	Z7	X8	Y8	Z8	X9	Y9	Z9	X10	Y10	Z10	X11	Y11	Z11	X12	Y12	Z12	X13	Y13	Z13	X14	Y14	Z14	X15	Y15	Z15	X16	Y16	Z16	X17	Y17	Z17	X18	Y18	Z18	X19	Y19	Z19	X20	Y20	Z20	X21	Y21	Z21	X22	Y22	Z22	X23	Y23	Z23	X24	Y24	Z24	X25	Y25	Z25	X26	Y26	Z26	X27	Y27	Z27	X28	Y28	Z28	X29	Y29	Z29	X30	Y30	Z30	X31	Y31	Z31	X32	Y32	Z32	X33	Y33	Z33	X34	Y34	Z34	X35	Y35	Z35	X36	Y36	Z36

1394	5.57200	-386.25760	1025.09924	441.93613	-226.24330	1003.94666	359.74228	-296.07825	625.68585	279.70847	-301.89706	579.76471	290.10178	-244.70163	627.44812	289.20895	-249.41554	582.12079	294.98120	-309.84500	500.40372	307.90848	-290.07629	475.66418	424.85477	-383.87482	396.74100	298.94431	-387.57248	353.45074	289.70566	-323.04071	389.56232	286.98996	-334.90738	346.63919	279.42657	-372.70056	88.53844	323.07294	-341.12106	103.99073	409.54694	-426.74106	58.25548	376.19330	-259.67993	36.41454	276.16934	-192.64748	57.47747	328.20557	-217.89064	38.55342	389.07721	-372.74414	1025.46680	559.86169	-211.25493	1005.81793	610.42957	-294.76010	646.21948	684.38281	-294.82950	599.92877	679.14160	-234.60651	640.44086	678.06555	-243.61667	593.37927	677.74213	-288.89307	497.59177	658.89404	-298.56876	472.48099	541.30371	-383.13373	399.73721	675.85864	-385.58301	357.72867	684.55908	-322.60245	388.64267	684.28436	-334.64420	348.80478	691.31689	-377.41791	87.37955	645.09827	-337.77252	102.16284	561.23248	-432.20547	58.31134	590.63220	-225.94893	37.87994	586.41028	-201.06015	54.68237	645.07178	-271.89264	30.90393	698.76080
1395	5.57600	-386.28116	1025.13025	441.93024	-226.23325	1003.94592	359.71591	-296.05209	625.69324	279.69803	-303.52191	578.55969	291.75238	-244.68507	627.44421	289.19675	-249.41727	582.13831	294.97040	-309.83450	500.39478	307.89087	-290.07425	475.69171	424.85776	-383.83826	396.73547	298.93933	-387.56390	353.44812	289.69580	-323.05701	389.53922	286.98883	-334.89746	346.64294	279.43021	-372.69229	88.53970	323.06915	-341.12460	104.01759	409.54218	-426.72583	58.22807	376.20712	-259.68887	36.42862	276.17499	-192.67346	57.49227	328.18991	-217.89362	38.53765	389.05783	-372.74014	1025.48401	559.86346	-211.24434	1005.84143	610.43683	-294.76263	646.24219	684.38513	-294.85968	599.96082	679.14484	-234.61821	640.43756	678.06244	-243.63254	593.39557	677.74384	-288.91306	497.60434	658.86237	-298.57635	472.46811	541.29999	-383.15302	399.75620	675.85583	-385.56894	357.74063	684.55774	-322.59344	388.69571	684.27374	-334.65134	348.81625	691.31323	-377.41913	87.39310	645.09155	-337.78387	102.14651	561.24298	-432.21777	58.32974	590.64172	-225.95541	37.88623	586.41644	-201.07494	54.65062	645.05365	-271.91489	30.91500	698.75372
1396	5.58000	-386.27222	1025.13672	441.90475	-226.21190	1003.94830	359.69489	-296.02902	625.69653	279.67422	-303.53107	578.59515	291.70343	-244.67761	627.45294	289.16959	-249.41534	582.10211	294.94073	-309.81390	500.40710	307.87439	-290.08081	475.68228	424.83652	-383.84689	396.72681	298.92972	-387.56970	353.46756	289.69711	-323.03271	389.56903	286.96011	-334.90546	346.64944	279.40738	-372.68228	88.54810	323.07510	-341.12338	104.04044	409.53265	-426.73785	58.25702	376.21667	-259.66199	36.43987	276.17197	-192.67877	57.51987	328.18259	-217.87619	38.55789	389.06342	-372.74380	1025.50024	559.85577	-211.22725	1005.87457	610.38831	-294.80045	646.25049	684.36926	-294.86673	599.97992	679.14069	-234.62592	640.47565	678.04175	-243.63850	593.41968	677.73322	-288.94742	497.63101	658.84155	-298.56488	472.48898	541.28485	-383.20044	399.80850	675.84271	-385.58496	357.76187	684.53540	-322.60809	388.73782	684.27374	-334.66583	348.83655	691.28888	-377.45581	87.39775	645.10931	-337.76868	102.16580	561.22565	-432.21967	58.36806	590.62885	-225.95102	37.92562	586.39172	-201.08168	54.68364	645.05078	-271.91415	30.94082	698.76813
1397	5.58400	-386.26260	1025.15527	441.89542	-226.15869	1003.97247	359.67630	-296.01419	625.71344	279.67294	-303.54324	578.59247	291.75104	-244.68814	627.45264	289.16245	-249.29897	582.21497	294.89359	-309.78818	500.40704	307.86206	-290.08850	475.68652	424.80505	-383.85373	396.74042	298.93997	-387.54269	353.48145	289.68713	-323.04782	389.56052	286.94418	-334.88269	346.65668	279.40851	-372.67480	88.56400	323.07126	-341.11044	104.06281	409.52817	-426.73447	58.24144	376.19479	-259.65381	36.46433	276.17474	-192.63809	57.56295	328.16541	-217.88478	38.58347	389.04385	-372.75110	1025.49768	559.83624	-211.18846	1005.90881	610.37341	-294.83380	646.27979	684.34357	-294.86389	600.01337	679.11877	-234.62894	640.49780	678.02191	-243.64975	593.44312	677.71368	-288.92902	497.65515	658.82318	-298.55072	472.50220	541.28204	-383.21069	399.83237	675.81415	-385.59930	357.79150	684.51050	-322.60864	388.76855	684.23865	-334.65723	348.85724	691.28290	-377.43515	87.42256	645.10693	-337.79205	102.16471	561.23511	-432.25009	58.39417	590.63416	-225.89235	37.98001	586.37988	-201.08563	54.71122	645.04053	-271.91232	30.95705	698.74939
1398	5.58800	-386.25952	1025.16565	441.87491	-226.12576	1003.97736	359.67194	-295.97549	625.71393	279.64514	-303.54742	578.63177	291.73157	-244.65460	627.47552	289.14737	-249.27420	582.20148	294.88785	-309.78656	500.42090	307.85126	-290.08255	475.69208	424.80630	-383.86597	396.74274	298.93015	-387.54123	353.49634	289.66672	-323.02240	389.56314	286.94965	-334.87741	346.66132	279.39847	-372.66592	88.57932	323.07513	-341.10010	104.07786	409.52148	-426.74405	58.24966	376.21356	-259.65036	36.46409	276.18033	-192.62679	57.58661	328.16415	-217.85226	38.61848	389.04895	-372.74210	1025.51648	559.80792	-211.18857	1005.91180	610.35950	-294.81415	646.28839	684.32465	-294.88992	600.03320	679.11096	-234.62029	640.51270	678.00696	-243.65662	593.44556	677.70453	-288.92310	497.67633	658.82617	-298.54703	472.48999	541.27539	-383.23428	399.84897	675.79126	-385.60086	357.79196	684.50977	-322.60043	388.81335	684.24438	-334.66977	348.85886	691.26099	-377.43329	87.42960	645.08612	-337.65494	102.26324	561.18842	-432.24002	58.41219	590.60413	-225.87556	38.00952	586.38007	-201.06830	54.73777	645.04034	-271.88882	30.95993	698.74579
1399	5.59200	-386.25659	1025.16846	441.83115	-226.11668	1003.99634	359.65482	-295.98410	625.73102	279.63361	-303.52176	578.62396	291.72147	-244.61951	627.49969	289.14273	-249.27361	582.23169	294.86899	-309.77750	500.42920	307.83377	-290.06830	475.68661	424.78500	-383.87277	396.78925	298.91714	-387.55179	353.51788	289.65927	-323.02615	389.57404	286.93198	-334.88132	346.68292	279.38724	-372.65762	88.58352	323.06653	-341.11014	104.08543	409.51599	-426.76358	58.28872	376.22220	-259.65494	36.47900	276.16904	-192.62923	57.59879	328.16266	-217.87134	38.62354	389.06055	-372.74384	1025.51733	559.77283	-211.16820	1005.92621	610.32770	-294.80682	646.28589	684.30603	-294.87039	600.03406	679.08252	-234.60735	640.53223	677.98779	-243.65318	593.45905	677.68463	-288.93207	497.70078	658.78577	-298.54175	472.49847	541.25470	-383.24130	399.86621	675.78076	-385.58768	357.80215	684.49524	-322.58997	388.83102	684.22247	-334.66705	348.88568	691.26337	-377.43997	87.42923	645.08105	-337.63171	102.28574	561.18774	-432.24509	58.42122	590.59729	-225.86691	38.03852	586.36609	-201.18417	54.66077	644.98785	-271.87433	30.96634	698.73688
1400	5.59600	-386.24448	1025.17358	441.78915	-226.08522	1003.99921	359.63901	-295.95300	625.74634	279.60269	-301.84787	579.84595	290.02023	-244.59048	627.50305	289.13821	-249.26018	582.23169	294.84485	-309.78058	500.43350	307.82468	-290.05814	475.68503	424.78555	-383.88599	396.80316	298.91202	-387.53726	353.52136	289.64435	-323.02988	389.56580	286.93665	-334.84885	346.66989	279.36353	-372.66000	88.58925	323.05527	-341.09628	104.06462	409.50558	-426.76086	58.32595	376.18793	-259.62665	36.47001	276.16745	-192.61905	57.59354	328.16827	-217.86328	38.61808	389.04794	-372.71713	1025.50305	559.73499	-211.18134	1005.88898	610.32263	-294.81305	646.28479	684.27429	-294.86758	600.02600	679.05548	-234.61870	640.51233	677.96289	-243.64246	593.43896	677.66418	-288.88681	497.68259	658.77673	-298.56656	472.48560	541.21570	-383.22726	399.83368	675.75958	-385.83685	357.76254	683.86273	-322.60986	388.69421	683.88397	-334.67075	348.86813	691.23285	-377.40118	87.42310	645.07220	-337.64236	102.28812	561.18884	-432.26352	58.41293	590.60052	-225.86517	38.03506	586.38397	-201.19403	54.63432	644.98206	-271.89459	30.94165	698.73633
1401	5.60000	-386.23532	1025.15942	441.74982	-226.08446	1004.00232	359.62390	-295.94659	625.74207	279.58276	-303.44797	578.66107	291.63251	-244.58669	627.50000	289.13361	-248.62561	582.23755	294.90698	-309.78152	500.42996	307.79361	-290.05014	475.68604	424.76422	-383.87323	396.82205	298.88010	-387.53525	353.52505	289.62643	-323.00552	389.57401	286.91531	-334.86752	346.66562	279.34970	-372.70477	88.58946	323.00275	-341.11963	104.04625	409.51788	-426.74359	58.31918	376.16083	-259.42163	36.71397	276.11047	-192.64334	57.56437	328.20163	-217.90292	38.59201	389.09097	-372.74741	1025.52759	559.67566	-211.21822	1005.83472	610.31708	-294.82907	646.25299	684.25525	-294.88602	599.99994	679.02979	-234.65973	640.47803	677.97095	-243.66803	593.41986	677.67200	-288.96600	497.59439	658.78741	-298.58795	472.48962	541.21051	-383.24634	399.80518	675.75079	-385.82214	357.75821	683.87787	-322.65140	388.65115	683.89673	-334.69644	348.83337	691.24390	-377.44711	87.39309	645.05548	-337.63708	102.27090	561.17950	-432.26480	58.37598	590.59076	-225.89809	37.99920	586.41779	-201.22742	54.60770	645.01453	-271.89618	30.91574	698.72839
1402	5.60400	-386.23236	1025.15173	441.71313	-226.07567	1003.99304	359.62442	-295.93057	625.73419	279.55530	-303.48627	578.67383	291.60886	-244.58682	627.48828	289.12683	-249.23122	582.23492	294.83740	-309.76654	500.43185	307.77252	-290.05847	475.68600	424.75665	-383.88998	396.81134	298.87070	-387.55331	353.52289	289.61462	-322.99121	389.58356	286.91885	-334.85690	346.65860	279.33923	-372.71375	88.57725	322.99722	-341.13242	104.00942	409.52039	-426.81854	58.34064	376.15552	-259.39548	36.70753	276.11804	-192.65697	57.54291	328.22925	-217.89917	38.59438	389.11957	-372.73251	1025.51831	559.63525	-211.25977	1005.79675	610.34003	-294.85089	646.23376	684.25018	-294.94507	599.95966	679.00671	-234.70151	640.44855	677.97363	-243.70107	593.38806	677.67242	-288.99518	497.55814	658.81299	-298.34564	472.65634	541.12506	-383.26727	399.77963	675.73938	-385.82581	357.72125	683.86877	-322.69943	388.59357	683.91351	-334.71967	348.82040	691.24030	-377.45343	87.33941	645.04346	-337.77591	102.17950	561.22644	-432.23550	58.32749	590.59625	-225.92049	37.95821	586.45795	-201.08894	54.71260	645.09271	-271.90576	30.88937	698.73383
